<?xml version="1.0" encoding="us-ascii" standalone="no"?><svg xmlns="http://www.w3.org/2000/svg" xmlns:xlink="http://www.w3.org/1999/xlink" contentStyleType="text/css" height="382px" preserveAspectRatio="none" style="width:217px;height:382px;background:#FFFFFF;" version="1.1" viewBox="0 0 217 382" width="217px" zoomAndPan="magnify"><defs/><g><!--class Card--><g id="elem_Card"><rect codeLine="1" fill="#F1F1F1" height="162.0781" id="Card" rx="2.5" ry="2.5" style="stroke:#181818;stroke-width:0.5;" width="203" x="7" y="213"/><ellipse cx="87.75" cy="229" fill="#ADD1B2" rx="11" ry="11" style="stroke:#181818;stroke-width:1.0;"/><path d="M90.0938,224.6719 C89.1563,224.2344 88.5625,224.0938 87.6875,224.0938 C85.0625,224.0938 83.0625,226.1719 83.0625,228.8906 L83.0625,230.0156 C83.0625,232.5938 85.1719,234.4844 88.0625,234.4844 C89.2813,234.4844 90.4375,234.1875 91.1875,233.6406 C91.7656,233.2344 92.0938,232.7813 92.0938,232.3906 C92.0938,231.9375 91.7031,231.5469 91.2344,231.5469 C91.0156,231.5469 90.8125,231.625 90.625,231.8125 C90.1719,232.2969 90.1719,232.2969 89.9844,232.3906 C89.5625,232.6563 88.875,232.7813 88.1094,232.7813 C86.0625,232.7813 84.7656,231.6875 84.7656,229.9844 L84.7656,228.8906 C84.7656,227.1094 86.0156,225.7969 87.75,225.7969 C88.3281,225.7969 88.9375,225.9531 89.4063,226.2031 C89.8906,226.4844 90.0625,226.7031 90.1563,227.1094 C90.2188,227.5156 90.25,227.6406 90.3906,227.7656 C90.5313,227.9063 90.7656,228.0156 90.9844,228.0156 C91.25,228.0156 91.5156,227.875 91.6875,227.6563 C91.7969,227.5 91.8281,227.3125 91.8281,226.8906 L91.8281,225.4688 C91.8281,225.0313 91.8125,224.9063 91.7188,224.75 C91.5625,224.4844 91.2813,224.3438 90.9844,224.3438 C90.6875,224.3438 90.4844,224.4375 90.2656,224.75 L90.0938,224.6719 Z " fill="#000000"/><text fill="#000000" font-family="sans-serif" font-size="14" lengthAdjust="spacing" textLength="33" x="108.25" y="233.8467">Card</text><line style="stroke:#181818;stroke-width:0.5;" x1="8" x2="209" y1="245" y2="245"/><rect fill="none" height="6" style="stroke:#C82930;stroke-width:1.0;" width="6" x="15" y="255.6484"/><text fill="#000000" font-family="sans-serif" font-size="14" lengthAdjust="spacing" textLength="93" x="27" y="261.9951">SUITS: String</text><rect fill="none" height="6" style="stroke:#C82930;stroke-width:1.0;" width="6" x="15" y="271.9453"/><text fill="#000000" font-family="sans-serif" font-size="14" lengthAdjust="spacing" textLength="66" x="27" y="278.292">suit: char</text><rect fill="none" height="6" style="stroke:#C82930;stroke-width:1.0;" width="6" x="15" y="288.2422"/><text fill="#000000" font-family="sans-serif" font-size="14" lengthAdjust="spacing" textLength="60" x="27" y="294.5889">face: int</text><line style="stroke:#181818;stroke-width:0.5;" x1="8" x2="209" y1="301.8906" y2="301.8906"/><ellipse cx="18" cy="315.5391" fill="#84BE84" rx="3" ry="3" style="stroke:#038048;stroke-width:1.0;"/><text fill="#000000" font-family="sans-serif" font-size="14" lengthAdjust="spacing" textLength="177" x="27" y="318.8857">Card(suit: char, face: int)</text><ellipse cx="18" cy="331.8359" fill="#84BE84" rx="3" ry="3" style="stroke:#038048;stroke-width:1.0;"/><text fill="#000000" font-family="sans-serif" font-size="14" lengthAdjust="spacing" textLength="103" x="27" y="335.1826">getSuit(): char</text><ellipse cx="18" cy="348.1328" fill="#84BE84" rx="3" ry="3" style="stroke:#038048;stroke-width:1.0;"/><text fill="#000000" font-family="sans-serif" font-size="14" lengthAdjust="spacing" textLength="97" x="27" y="351.4795">getFace(): int</text><ellipse cx="18" cy="364.4297" fill="#84BE84" rx="3" ry="3" style="stroke:#038048;stroke-width:1.0;"/><text fill="#000000" font-family="sans-serif" font-size="14" lengthAdjust="spacing" textLength="123" x="27" y="367.7764">toString(): String</text></g><!--class CardDeck--><g id="elem_CardDeck"><rect codeLine="11" fill="#F1F1F1" height="145.7813" id="CardDeck" rx="2.5" ry="2.5" style="stroke:#181818;stroke-width:0.5;" width="192" x="12.5" y="7"/><ellipse cx="69.25" cy="23" fill="#ADD1B2" rx="11" ry="11" style="stroke:#181818;stroke-width:1.0;"/><path d="M71.5938,18.6719 C70.6563,18.2344 70.0625,18.0938 69.1875,18.0938 C66.5625,18.0938 64.5625,20.1719 64.5625,22.8906 L64.5625,24.0156 C64.5625,26.5938 66.6719,28.4844 69.5625,28.4844 C70.7813,28.4844 71.9375,28.1875 72.6875,27.6406 C73.2656,27.2344 73.5938,26.7813 73.5938,26.3906 C73.5938,25.9375 73.2031,25.5469 72.7344,25.5469 C72.5156,25.5469 72.3125,25.625 72.125,25.8125 C71.6719,26.2969 71.6719,26.2969 71.4844,26.3906 C71.0625,26.6563 70.375,26.7813 69.6094,26.7813 C67.5625,26.7813 66.2656,25.6875 66.2656,23.9844 L66.2656,22.8906 C66.2656,21.1094 67.5156,19.7969 69.25,19.7969 C69.8281,19.7969 70.4375,19.9531 70.9063,20.2031 C71.3906,20.4844 71.5625,20.7031 71.6563,21.1094 C71.7188,21.5156 71.75,21.6406 71.8906,21.7656 C72.0313,21.9063 72.2656,22.0156 72.4844,22.0156 C72.75,22.0156 73.0156,21.875 73.1875,21.6563 C73.2969,21.5 73.3281,21.3125 73.3281,20.8906 L73.3281,19.4688 C73.3281,19.0313 73.3125,18.9063 73.2188,18.75 C73.0625,18.4844 72.7813,18.3438 72.4844,18.3438 C72.1875,18.3438 71.9844,18.4375 71.7656,18.75 L71.5938,18.6719 Z " fill="#000000"/><text fill="#000000" font-family="sans-serif" font-size="14" lengthAdjust="spacing" textLength="70" x="89.75" y="27.8467">CardDeck</text><line style="stroke:#181818;stroke-width:0.5;" x1="13.5" x2="203.5" y1="39" y2="39"/><rect fill="none" height="6" style="stroke:#C82930;stroke-width:1.0;" width="6" x="20.5" y="49.6484"/><text fill="#000000" font-family="sans-serif" font-size="14" lengthAdjust="spacing" textLength="166" x="32.5" y="55.9951">cards: ArrayList&lt;Card&gt;</text><line style="stroke:#181818;stroke-width:0.5;" x1="13.5" x2="203.5" y1="63.2969" y2="63.2969"/><ellipse cx="23.5" cy="76.9453" fill="#84BE84" rx="3" ry="3" style="stroke:#038048;stroke-width:1.0;"/><text fill="#000000" font-family="sans-serif" font-size="14" lengthAdjust="spacing" textLength="165" x="32.5" y="80.292">CardDeck(suitSize: int)</text><ellipse cx="23.5" cy="93.2422" fill="#84BE84" rx="3" ry="3" style="stroke:#038048;stroke-width:1.0;"/><text fill="#000000" font-family="sans-serif" font-size="14" lengthAdjust="spacing" textLength="140" x="32.5" y="96.5889">getCardCount(): int</text><ellipse cx="23.5" cy="109.5391" fill="#84BE84" rx="3" ry="3" style="stroke:#038048;stroke-width:1.0;"/><text fill="#000000" font-family="sans-serif" font-size="14" lengthAdjust="spacing" textLength="143" x="32.5" y="112.8857">getCard(i: int): Card</text><ellipse cx="23.5" cy="125.8359" fill="#84BE84" rx="3" ry="3" style="stroke:#038048;stroke-width:1.0;"/><text fill="#000000" font-family="sans-serif" font-size="14" lengthAdjust="spacing" textLength="164" x="32.5" y="129.1826">shufflePerfectly(): void</text><ellipse cx="23.5" cy="142.1328" fill="#84BE84" rx="3" ry="3" style="stroke:#038048;stroke-width:1.0;"/><text fill="#000000" font-family="sans-serif" font-size="14" lengthAdjust="spacing" textLength="123" x="32.5" y="145.4795">toString(): String</text></g><!--link CardDeck to Card--><g id="link_CardDeck_Card"><path codeLine="20" d="M108.5,153.069 C108.5,170.625 108.5,189.568 108.5,207.675 " fill="none" id="CardDeck-to-Card" style="stroke:#181818;stroke-width:1.0;"/><polygon fill="#181818" points="108.5,212.757,112.5,203.757,108.5,207.757,104.5,203.757,108.5,212.757" style="stroke:#181818;stroke-width:1.0;"/><text fill="#000000" font-family="sans-serif" font-size="13" lengthAdjust="spacing" textLength="8" x="100.1188" y="172.8319">1</text><text fill="#000000" font-family="sans-serif" font-size="13" lengthAdjust="spacing" textLength="7" x="101.1883" y="201.9227">*</text></g><!--SRC=[VOvD2i8m48NtFSMGLQjsuJP8GHH1S2543n3If0sM5f9KgEBTJQOr5HSkty-y-KJ3hOKTDoKy4u0SsFLuOHIOCxgjqB6zTXH4pGrAnOMae5ldrH8lqxcnckCCyqewvjCqYmle7NmhU9yPruqFWpUzVYM9Y71xAMuJeF3IKjWQmuUJjcuJyYB2X2O2CVtu0GdnhkjRz_rvybCzTYcEO6BhNgb6dgLHKhXc25VtJfT_W2CgMPCyBu0i2Ewz0G00]--></g></svg>