<?xml version="1.0" encoding="us-ascii" standalone="no"?><svg xmlns="http://www.w3.org/2000/svg" xmlns:xlink="http://www.w3.org/1999/xlink" contentStyleType="text/css" height="199px" preserveAspectRatio="none" style="width:402px;height:199px;background:#FFFFFF;" version="1.1" viewBox="0 0 402 199" width="402px" zoomAndPan="magnify"><defs/><g><!--class Nim--><g id="elem_Nim"><rect codeLine="1" fill="#F1F1F1" height="178.375" id="Nim" rx="2.5" ry="2.5" style="stroke:#181818;stroke-width:0.5;" width="381" x="7" y="7"/><ellipse cx="179.25" cy="23" fill="#ADD1B2" rx="11" ry="11" style="stroke:#181818;stroke-width:1.0;"/><path d="M181.5938,18.6719 C180.6563,18.2344 180.0625,18.0938 179.1875,18.0938 C176.5625,18.0938 174.5625,20.1719 174.5625,22.8906 L174.5625,24.0156 C174.5625,26.5938 176.6719,28.4844 179.5625,28.4844 C180.7813,28.4844 181.9375,28.1875 182.6875,27.6406 C183.2656,27.2344 183.5938,26.7813 183.5938,26.3906 C183.5938,25.9375 183.2031,25.5469 182.7344,25.5469 C182.5156,25.5469 182.3125,25.625 182.125,25.8125 C181.6719,26.2969 181.6719,26.2969 181.4844,26.3906 C181.0625,26.6563 180.375,26.7813 179.6094,26.7813 C177.5625,26.7813 176.2656,25.6875 176.2656,23.9844 L176.2656,22.8906 C176.2656,21.1094 177.5156,19.7969 179.25,19.7969 C179.8281,19.7969 180.4375,19.9531 180.9063,20.2031 C181.3906,20.4844 181.5625,20.7031 181.6563,21.1094 C181.7188,21.5156 181.75,21.6406 181.8906,21.7656 C182.0313,21.9063 182.2656,22.0156 182.4844,22.0156 C182.75,22.0156 183.0156,21.875 183.1875,21.6563 C183.2969,21.5 183.3281,21.3125 183.3281,20.8906 L183.3281,19.4688 C183.3281,19.0313 183.3125,18.9063 183.2188,18.75 C183.0625,18.4844 182.7813,18.3438 182.4844,18.3438 C182.1875,18.3438 181.9844,18.4375 181.7656,18.75 L181.5938,18.6719 Z " fill="#000000"/><text fill="#000000" font-family="sans-serif" font-size="14" lengthAdjust="spacing" textLength="28" x="199.75" y="27.8467">Nim</text><line style="stroke:#181818;stroke-width:0.5;" x1="8" x2="387" y1="39" y2="39"/><rect fill="none" height="6" style="stroke:#C82930;stroke-width:1.0;" width="6" x="15" y="49.6484"/><text fill="#000000" font-family="sans-serif" font-size="14" lengthAdjust="spacing" textLength="73" x="27" y="55.9951">piles: int[]</text><line style="stroke:#181818;stroke-width:0.5;" x1="8" x2="387" y1="63.2969" y2="63.2969"/><ellipse cx="18" cy="76.9453" fill="#84BE84" rx="3" ry="3" style="stroke:#038048;stroke-width:1.0;"/><text fill="#000000" font-family="sans-serif" font-size="14" lengthAdjust="spacing" textLength="38" x="27" y="80.292">Nim()</text><ellipse cx="18" cy="93.2422" fill="#84BE84" rx="3" ry="3" style="stroke:#038048;stroke-width:1.0;"/><text fill="#000000" font-family="sans-serif" font-size="14" lengthAdjust="spacing" textLength="124" x="27" y="96.5889">Nim(pileSize: int)</text><ellipse cx="18" cy="109.5391" fill="#84BE84" rx="3" ry="3" style="stroke:#038048;stroke-width:1.0;"/><text fill="#000000" font-family="sans-serif" font-size="14" lengthAdjust="spacing" textLength="344" x="27" y="112.8857">removePieces(number: int, targetPile: int): void</text><ellipse cx="18" cy="125.8359" fill="#84BE84" rx="3" ry="3" style="stroke:#038048;stroke-width:1.0;"/><text fill="#000000" font-family="sans-serif" font-size="14" lengthAdjust="spacing" textLength="355" x="27" y="129.1826">isValidMove(number: int, targetPile: int): boolean</text><ellipse cx="18" cy="142.1328" fill="#84BE84" rx="3" ry="3" style="stroke:#038048;stroke-width:1.0;"/><text fill="#000000" font-family="sans-serif" font-size="14" lengthAdjust="spacing" textLength="164" x="27" y="145.4795">isGameOver(): boolean</text><ellipse cx="18" cy="158.4297" fill="#84BE84" rx="3" ry="3" style="stroke:#038048;stroke-width:1.0;"/><text fill="#000000" font-family="sans-serif" font-size="14" lengthAdjust="spacing" textLength="191" x="27" y="161.7764">getPile(targetPile: int): int</text><ellipse cx="18" cy="174.7266" fill="#84BE84" rx="3" ry="3" style="stroke:#038048;stroke-width:1.0;"/><text fill="#000000" font-family="sans-serif" font-size="14" lengthAdjust="spacing" textLength="123" x="27" y="178.0732">toString(): String</text></g><!--SRC=[XSix3i8m40JGFgVOqWYuG2v01KIAH8Ced6GKhUGFiXqN8EwEFn4553IhqSwyKKdlwSIQdWtHdkwiu5jY4wwtzDZcIcm-ATSzFr0MzUsWRKJ76E65MVG0LzeT1UbcX2wHEcyfMfuAOd-HYgTZal_COAs2D2ixI8rpX1DVpOh4hq-tB8BjWsCpPrbJyte3]--></g></svg>